/* XPM */
static char *_9524_c946e841f946e2fb9c6d486dbc1dc64018b68b4d2364ce96ebe7197b227d1436[] = {
/* columns rows colors chars-per-pixel */
"64 64 63 1 ",
"  c #21A000",
". c #32A300",
"X c #48A71F",
"o c #49A720",
"O c #49A823",
"+ c #4CA828",
"@ c #51A933",
"# c #55AB3A",
"$ c #58AB3E",
"% c #5CAC44",
"& c #5FAD49",
"* c #62AE4C",
"= c #65AF51",
"- c #67B054",
"; c #69B056",
": c #6DB25C",
"> c #70B35F",
", c #75B566",
"< c #77B668",
"1 c #79B66B",
"2 c #7CB86E",
"3 c #7EB971",
"4 c #81BA75",
"5 c #86BC7A",
"6 c #89BD7F",
"7 c #8CBF82",
"8 c #8EC084",
"9 c #90C187",
"0 c #94C38B",
"q c #98C48F",
"w c #9BC693",
"e c #9FC897",
"r c #9FC898",
"t c #A3CA9C",
"y c #A6CBA0",
"u c #ABCEA5",
"i c #AECFA8",
"p c #AED0A8",
"a c #B1D1AC",
"s c #B6D4B1",
"d c #BAD6B5",
"f c #BDD7B8",
"g c #BED8B9",
"h c #C2DABE",
"j c #C6DCC2",
"k c #C9DFC6",
"l c #CAE0C6",
"z c #CEE1CA",
"x c #D1E3CE",
"c c #D5E5D3",
"v c #D8E7D5",
"b c #DAE8D7",
"n c #DCE9DA",
"m c #E0ECDE",
"M c #E4EEE3",
"N c #E7F0E6",
"B c #E8F1E7",
"V c #ECF3EB",
"C c #F0F6EF",
"Z c #F2F7F1",
"A c #F6F9F6",
"S c #F8FAF7",
"D c #FEFEFE",
/* pixels */
"5>,,,,,,,<,,,,,,,,,,,,,,,,,,,,,,,,,,,,,,,,,,,,,,,,,,,,,,,,,,,<>5",
",,,,,,,,,,,,,,<,,,,,,,,,,,,,,,,,,,,,,,,,,,,,<,,,,,,,,,,,,,,,,,,,",
"<,,,,,,,,,,,,,,,,,,,,,<,,,,,,,,,,,,,,,,,,,,,,,,,,,<,,,,<,,,,,,,,",
",,,,,,,,,,,,,,,,,,<,,,,,,<,,<,,,,,,<<,,,,,,,,,,,,,,,,,,,<,,,,,,,",
",,,,,,,,,,,,,,,,,,,,,,,,,,,,,<,,,,,,,,,,,,,,<,,,,,,,,,,,,,,,,,,,",
",,,,,,,,,,,,,,,,,,,,,,,,,,,,,,,,,,,,,,,,,,,<,,,,,,,<,,,,,,,,,,,,",
",,,,,,,<,,,,,<,,,,,,,,,,,,,,,,,,,,,<,,,,,,,,,,,,,,,,,,,,,,,,<,,,",
",,,,,,,,,,,,,,,,,,,,,<,,,,,,,,,,,,,,,,,,,,,,,,,,,,,,,,,,,,,,,,,,",
",,,,,,,,,,,,,,,,,,,,,2,,,,,,,,,,,,,,,,,,,,,,,,,,<,,,,,,<,,,,,,,,",
",,,,,,,,<,,,,,,,,,,<,=<,,,,,,,,,,,,,,,,,,,,,,,,,,,,,,,,,<,,,,,<,",
",,,,<,,,,,,,,,,<,,,,<u;,,,,,,,,,,,<,,,,,,,,,,,,,,,,,,,,,,,,,,,,,",
",,,,,,,,,,,,,,,,,,<&kDs;1,,,,<,,,,,,,,,,,,,,,,,,,,,,,,,,,,,,,,,,",
",<,,,,,,,,,,,,,2,2&dDDx=1,,,,,,,,,,,,,,,,,,,,,,,,<,,,,,,,,,,,,,,",
",,,,,,,,,,,,,,,*2*tDDm;,,<1<<,,<<<<,<<<,<1<,<<<<<<,,,,,,,,,,,,,,",
",,,,<,,,,,,,,,:f:8SDV1><,>%>;,>:<*$>,&%,:%-<:&>>%:<,,,,<,,,,,,,,",
",,,,,,,,,,,,<;kDcVDA7:1<:9x8t59w*fc9,jz19ca&wx57x0:<,,,,,,,,,<,,",
",,,,,,,,,,,,<;zDDDDe=1,<*nN6vwdhaNkuxnltmlBtnm5bMq:<,,,,,,,,,,,<",
",,,,,,,,,,,,<,*bDDa&1,,<-aN6x0adb0 1N;.qAlBapN5uNq:<,,,,,,,,,,,,",
",,,,,,,,,<,,,<,:Vk%2,,,,10hnxthhcd,0Mw1tB9gu7lm5hN=<,,,,,,,,,,,,",
",,<,<,,,,,,,,,,,2,,,,,,<:cCstVB9qBVauVBwkBM9vCazVh-<<,,,,,,,,,,,",
",,,<,,,,,,,,,,,<,,<,,,,<,,0>;95>:5w,-80::w3*2q;,q>,,,,,,,,,,,,,,",
",,,,,,,,,,,,,,,,,<,,,,,,,,-,<;:<,:*,<:;,,->1>-1,-,,,,,,,,,,,,,,,",
",,,,,,,,,,,,,,,,,,,,,,,,<<<<<<<,,<<<,<1,,<1,<1,<1,,,,,,,,,,,,,,<",
",,,,,,,,,,,,,,,,,,,,,,,,,,<,,,,,,,,,,,,,,,,,,,,,,,,,,,,,,<,,,,,,",
",,,,,,,,,,,,,<,,,,,,,,,,<,,,,,,,,,,,,,,,,,,,,,,,,,,<,,,,,,,,,,,,",
",,,,,,,,,,,,,,,,,,,,,,,,,,,,,,,<,,,,,,,,,,,,,,,,,,,,,,,,,,,,,<,,",
",,,,,<,,,<,,,,,,,,,,,,,,,,,,,,,,,,,,,,,,,,,,,,,,,,,,,,,,,,,,,,,,",
",,<,,,,,,,,,,,,,,,,,,,,,,,,,,,,,,,,<,,,,,,,,,,,<,,,,,,,<,,,,,,,,",
",,,,,<,,,,,,,,,,,,,,,,,,,,,,,,,,,,,,<,,,,,,,,,,,,,,,,,,,,,,,,,,,",
",,,,,,,,,,,,,,,,,,,,,,,<,,,,,,,,,,,,,,,,,,,,,,,,,,,,,,,,,,,,,,<,",
",,,,,,,,,,,,<,,,,<,,,,,,,,,,,,,,,,,,,,,,,,,,,,,,,,,<,,,,<,,,,,,,",
",,,,,,,,,,,,,<2<<,,,,,,,<2<2<,,,,,,,<<<21,,,,<,,,,,,,,,,,,,,,,,,",
",,,,,,,,,,<,<;**=,,,,,,<:&**:<,,,,,<,*&&=<<,,,,,,,,,,,,,,,,,,,,,",
",,,,,,,,,,,<;tsdu,<,,,<;7knj5;<,,,<>,sbct=,,,,,,,,,,,,,,,,,,,,,,",
",,,,<,,,,,<:7DDDB;<,,2-tSDDDSw;<,<,2MDDDDj=<,,,,,,,,,,,,,,<,,,,,",
",,,,,,,,,,<:wckDM;<,<:6DDktzDA3,<<-bDMysSDa=2,,,,,,,<,,,,,,,,<,,",
",,,,,,,,,,,<,$>SB-<,2*cDf#:$jDk*3=tDN:=%wDZ,,,,,,,,,,,,,,,,,,,,,",
",<,,,,,,,,,,,,4DM;<<:5DV:<2,,AS2,-nDw=22%xDu*2,,,,,,,,,,,,,,,,,,",
",,,,<,,,,,,,1>4SM;<2*pDh*2,<*zDt*4DV:,,<=wDv*1,,,,,,,,,,,,,,,,,,",
",,,,,,,,,,,,,>4DV=,2*zDt-<,<=uDj@wDx*2,<,2SV:,,,,,,,,,,,,,,<,,,,",
",,,,,,,,,,,,,,2DM-,2=mD7:<,<:qDvOaDf*<,,<:VS2,,,,,,,,,,,,,,,,,,,",
",,,,,,,,,,,,,:4DB-,2=MD3:,,<:6DMofDa=<,,<=MD4,,,,,,,,,,,<,,,,,<,",
",,<,<,,,,,,,1:4SM=<,=BS3,,,<:6DMXfDa*2,,2*mD5:,,,,,,,,,,,,,,,,,,",
",,,,,,,,,,,,,,2DV=<2=MD5,<,<:7DnodDs*<,,<;MD4><,,,,,<,,,,,,,,,,,",
",,,<,,,,,,,,1:4SN=,2*vD0:<,<-rDz+yDk*<,,,,ZA,,,,<,,<,,,,,,,,,,,,",
",,,,,,,,,,,,,,2DN;,2*hDi*<,1*fDs$9Dn=<,<:5DM-<,,,<,,,,<,,,,,,,,,",
",,,,,,,,,,,,1>4DN;<<;wDb*2,<-mD9:,VD4,,<*aDh&<,4:,:>,:,,,,,,,,,,",
",,,,,,,,,,,,,,2DN=,,,,VD8*3&wDN;2*hDh@2,;VD0::wua7ds7k7:<<,,,,,<",
",,,,,,,,,,,,<:4SN;<,<*aDV5=7VDy-<,4SDu=,xDc*2;f2usuikts;<,,,,,,,",
",,,,,,,,,,<,<,4DV-<,<<;vDDMDDz-<,<;uDDVZDC4,;qs@udyyk7f;<,,,,,,,",
",,,,,<,,,,,,,>2Bx;<,<,,>zSDSj:,,,,<-uVDDn5:<:f7*t0ffwxq:<,,,,<,,",
",,<,,,,,,,,,,,,,,,,,,,,,-4w4*,<,,,,<=<07;:2>5u:<,,<<:2><,,<,,,,,",
",,,,,<,,,,,,,,,,,,,,,,,<<::><<,,,,,,<,::<1,,,>,,,,,,,>,,,,,,,,,,",
",,,,,,,,,,,,,,,,<,,,,,,,,<<<,,,,,,,,,,1,1,,,,<,,,,1,,,,,,,,,,,,,",
",,,,,,,,,,,,,,,,,,,,<,,,,,,,,,,<,,,,,,,,,,,,,,,,,,,,,,,,,,<,,,,,",
",,,,,,,,,,<,,,,,,,,,,,,,,,,,,,,,,,,,,,,,,,,,,,,,,,,,,,,,,,,,,,,,",
",,,,,,,,,,,,,,,,,,,,,,,,,,,,,,,,<,,,,,<,,<,,,,,<,,,,,,,,,,,,,,,,",
",,,,,,,,,,,,,,,,,,,,,,,,,,<,,,,,,,,,,,,,,,,,,,,,,,,,,<,,,,,,,,,,",
",,,,,,,,,<,,,<,,,,,,,,,,,,,,,,<,,,,,,,,,,,,,,,,,,<,,,,,,,,,,,,,,",
",,,,<,,,,,,,,,,,,<,,,,<,,,,,,,,,,,,,,,,,,,,,,,,,,,,,,,,,,<,,,,<,",
",,,,,,,,,,,,,,,,,,,,,,,,,,,,,,,,,,,,,,,,,,,,,,,,,,,,,,,,,,,,,,,,",
"<,,,<,,,,,,,,,,,,,,,,,,,,,,,,,,,,,,,,,,,,,,,,,,,,,,,,,,,,,,,,,,<",
">,,,,,,,,,,<,,,,,,,,,,,,,,,,,,,,,,,,,,,<<,,,,,<,,,,,,,,,,,,,,,<>",
"5,<,,,,,,,,,,,,,,,,<,,,,,,<,,,,,,<,,,,,,,,,,,,,,,,,,,,,,,,,,,,,5"
};
