/* XPM */
static char *_2765_37f79da5638057f5946a0b7d788383199be31d8ff6abce3f20f51867f9506049[] = {
/* columns rows colors chars-per-pixel */
"16 16 243 2 ",
"   c #079E01",
".  c #41B439",
"X  c #AEDCA4",
"o  c #2FAD28",
"O  c #13A20C",
"+  c #44B238",
"@  c #72C169",
"#  c #9ACF96",
"$  c #CAE0C4",
"%  c #B0E1A5",
"&  c #77DC64",
"*  c #79D466",
"=  c #6AC359",
"-  c #33892A",
";  c #75B96B",
":  c #A6DC9C",
">  c #2DB025",
",  c #44B43B",
"<  c #6FBA65",
"1  c #3CB234",
"2  c #31B028",
"3  c #40B032",
"4  c #66C15B",
"5  c #86CE7D",
"6  c #90BF89",
"7  c #86CA7B",
"8  c #74DE61",
"9  c #6BCC59",
"0  c #6AC25A",
"q  c #77B270",
"w  c #6EB665",
"e  c #68BA5E",
"r  c #61CA57",
"t  c #46B33D",
"y  c #13860A",
"u  c #52BE49",
"i  c #60CC55",
"p  c #3FB42D",
"a  c #56C246",
"s  c #66CA58",
"d  c #3B8F31",
"f  c #4CAB3F",
"g  c #73E75E",
"h  c #5BC749",
"j  c #6DC65E",
"k  c #D7ECD2",
"l  c #64B25D",
"z  c #0E8604",
"x  c #83D579",
"c  c #68C95C",
"v  c #39B82B",
"b  c #1E4D1A",
"n  c #112410",
"m  c #061B04",
"M  c #538A4A",
"N  c #8ADF7E",
"B  c #52A74C",
"V  c #387433",
"C  c #162A13",
"Z  c #0E240B",
"A  c #344B31",
"S  c #D8EAD2",
"D  c #77C86D",
"F  c #31B123",
"G  c #85D678",
"H  c #6CCE5F",
"J  c #44C933",
"K  c #13310F",
"L  c black",
"P  c #4A7843",
"I  c #86DE78",
"U  c #50AE47",
"Y  c #2D6528",
"T  c #212A1F",
"R  c #C2E5B9",
"E  c #74CE68",
"W  c #3CC02C",
"Q  c #5ECC4D",
"!  c #55C944",
"~  c #48CF36",
"^  c #13320E",
"/  c #397A2F",
"(  c #69E556",
")  c #4DCB3A",
"_  c #2D7821",
"`  c #152712",
"'  c #75CF62",
"]  c #58C946",
"[  c #44C733",
"{  c #5DBF4D",
"}  c #62C453",
"|  c #6FD462",
" . c #44873A",
".. c #3B6F32",
"X. c #5A8C54",
"o. c #3C6936",
"O. c #234D1D",
"+. c #174411",
"@. c #3A5E34",
"#. c #7A9074",
"$. c #355D30",
"%. c #2E6B26",
"&. c #61D14E",
"*. c #67CF57",
"=. c #6DCF60",
"-. c #59B34A",
";. c #6ABF5D",
":. c #8DD883",
">. c #68C55A",
",. c #64C155",
"<. c #93E789",
"1. c #3C5E38",
"2. c #414F3E",
"3. c #C3EABA",
"4. c #5DA854",
"5. c #45A539",
"6. c #58D146",
"7. c #75D367",
"8. c #8CD581",
"9. c #409738",
"0. c #5FAC56",
"q. c #99D78E",
"w. c #58AA4F",
"e. c #34792E",
"r. c #080A08",
"t. c #040704",
"y. c #020301",
"u. c #010301",
"i. c #050704",
"p. c #070408",
"a. c #479D37",
"s. c #72DB5F",
"d. c #B0DDA9",
"f. c #9DD894",
"g. c #8FD284",
"h. c #489A42",
"j. c #6BB263",
"k. c #ABE19E",
"l. c #65B35D",
"z. c #3C7D37",
"x. c black",
"c. c #000100",
"v. c #010101",
"b. c #010101",
"n. c #010201",
"m. c #479A38",
"M. c #6BD459",
"N. c #82BD7B",
"B. c #96D18C",
"V. c #A4DE99",
"C. c #57A152",
"Z. c #7CBD75",
"A. c #C1EFB4",
"S. c #77BC70",
"D. c #488545",
"F. c #020202",
"G. c #010201",
"H. c black",
"J. c #010201",
"K. c #46923A",
"L. c #5CC24C",
"P. c #37902F",
"I. c #86C77B",
"U. c #C1F0B5",
"Y. c #73D164",
"T. c #72D461",
"R. c #70D75E",
"E. c #77DC66",
"W. c #60AD53",
"Q. c #41613A",
"!. c #7BB66E",
"~. c #8BB683",
"^. c #556E52",
"/. c #2B7223",
"(. c #42A736",
"). c #5CC14C",
"_. c #69CF57",
"`. c #73DA60",
"'. c #8BE37A",
"]. c #78DA66",
"[. c #55C741",
"{. c #82E46F",
"}. c #78C468",
"|. c #0F200C",
" X c #4A8A41",
".X c #77DC69",
"XX c #94E089",
"oX c #649B5C",
"OX c #0C2108",
"+X c #2C8023",
"@X c #3FA933",
"#X c #6CD15B",
"$X c #61CE4F",
"%X c #5ACB46",
"&X c #B4E8A8",
"*X c #92D584",
"=X c #4BAF3B",
"-X c #9EDB91",
";X c #A7E59A",
":X c #73D95F",
">X c #30B427",
",X c #009800",
"<X c #32AE26",
"1X c #45C036",
"2X c #5CDA4A",
"3X c #4CCD3B",
"4X c #53CB43",
"5X c #7ED475",
"6X c #65C158",
"7X c #52B342",
"8X c #9AE08F",
"9X c #83D476",
"0X c #52B941",
"qX c #8DDA80",
"wX c #8CD781",
"eX c #4CA741",
"rX c #24A31C",
"tX c #069F00",
"yX c #1EA716",
"uX c #37B62B",
"iX c #5DCC4A",
"pX c #44BC33",
"aX c #4FBF3F",
"sX c #93DE89",
"dX c #70CA61",
"fX c #56BB44",
"gX c #8CDB83",
"hX c #7DD471",
"jX c #5AC048",
"kX c #85D979",
"lX c #7ECF75",
"zX c #3A9033",
"xX c #1E9A19",
"cX c #0AA203",
"vX c #11A20C",
"bX c #30B226",
"nX c #63CB51",
"mX c #43B532",
"MX c #50BA41",
"NX c #A3E699",
"BX c #79D06B",
"VX c #5BC149",
"CX c white",
/* pixels */
"  . X o O + @ # $ % & * = - ; : ",
"> , < 1 2 3 4 5 6 7 8 9 0 q w e ",
"r t y u i p a s d f g h j k l z ",
"x c v b n m M N B V C Z A S D F ",
"G H J K L L P I U Y L L T R E W ",
"Q ! ~ ^ L L / ( ) _ L L ` ' ] [ ",
"{ } |  ...X.o.O.+.@.#.$.%.&.*.=.",
"-.;.:.>.,.<.1.L L 2.3.4.5.6.7.8.",
"9.0.q.w.e.r.t.y.u.i.p.a.s.d.f.g.",
"h.j.k.l.z.x.c.v.b.n.L m.M.N.B.V.",
"C.Z.A.S.D.F.G.H.L J.L K.L.P.I.U.",
"Y.T.R.E.W.L Q.!.~.^.L /.(.)._.`.",
"'.].[.{.}.|. X.XXXoXOX+X@X#X$X%X",
"&X*X=X-X;X:X>X,X<X1X2X3X4X5X6X7X",
"8X9X0XqXwXeXrXtXyXuXiXpXaXsXdXfX",
"gXhXjXkXlXzXxXcXvXbXnXmXMXNXBXVX"
};
