/* XPM */
static char *_839_9ce9a972c092c12ed438580c898c51ded95a7ca461def2d9335c3d4d4a16ebb8[] = {
/* columns rows colors chars-per-pixel */
"5 16 80 1 ",
"  c #0C160A",
". c #112B0E",
"X c #132F0F",
"o c #13300F",
"O c #143110",
"+ c #143011",
"@ c #35612F",
"# c #35662D",
"$ c #3B6C34",
"% c #3D6339",
"& c #3E7736",
"* c #3E7C35",
"= c #3F7F38",
"- c #407639",
"; c #476F43",
": c #477B40",
"> c #497A42",
", c #5A7954",
"< c #1DA818",
"1 c #389B2E",
"2 c #369532",
"3 c #3A9F34",
"4 c #2BA026",
"5 c #27AC25",
"6 c #32A82E",
"7 c #3FAD38",
"8 c #4A893F",
"9 c #468140",
"0 c #498D42",
"q c #479440",
"w c #4F9A46",
"e c #559D4B",
"r c #569B4F",
"t c #5E9455",
"y c #5D9B58",
"u c #54A14B",
"i c #56A34C",
"p c #4EB744",
"a c #4EB846",
"s c #4DB548",
"d c #5CA252",
"f c #5FA357",
"g c #5BAF51",
"h c #5FA854",
"j c #5BAE54",
"k c #5EAE54",
"l c #57B452",
"z c #5DB553",
"x c #5BBB57",
"c c #62AB58",
"v c #60AC59",
"b c #69AE5E",
"n c #61B158",
"m c #66B05E",
"M c #7A9C75",
"N c #6BAD63",
"B c #6DAB64",
"V c #66B760",
"C c #6BB363",
"Z c #6BB763",
"A c #6CB364",
"S c #67BC61",
"D c #71B767",
"F c #74B76A",
"G c #75B26D",
"H c #71BE6A",
"J c #74BE6D",
"K c #78BF6E",
"L c #77A272",
"P c #7FB778",
"I c #78CF6B",
"U c #7ACA6C",
"Y c #7ECB71",
"T c #7DCF71",
"R c #80C077",
"E c #84C37B",
"W c #8DAB87",
"Q c #96BB93",
"! c #8BC187",
"~ c #8CC385",
/* pixels */
"la!YP",
"1=v&W",
"g:*;h",
"~% $K",
"T>,-z",
"iNLfH",
"9u72y",
"c04<q",
"Fmp3D",
"MRIbt",
"ewECk",
"nBGjA",
"sZx6Q",
"5VJSU",
"rd8@#",
"Xo.+O"
};
