/* XPM */
static char *_198_6a30e0c064507bc79ce0598d489928677e42f0b0dec15105adc1bf5a2a8fddcb[] = {
/* columns rows colors chars-per-pixel */
"16 16 179 2 ",
"   c #6F6E6E",
".  c #6E6F70",
"X  c #6F777C",
"o  c gray44",
"O  c #717171",
"+  c #727272",
"@  c #737272",
"#  c gray45",
"$  c #747474",
"%  c #757474",
"&  c gray46",
"*  c #767676",
"=  c #777676",
"-  c #777776",
";  c #777777",
":  c #787777",
">  c #747678",
",  c #777778",
"<  c #767878",
"1  c #777879",
"2  c gray47",
"3  c #797878",
"4  c #797979",
"5  c #7A7979",
"6  c #7B7979",
"7  c #787A7A",
"8  c #797A7A",
"9  c #797A7B",
"0  c #787B7B",
"q  c #7B7A7A",
"w  c #7B7B7B",
"e  c #7C7B7B",
"r  c #7A7C7C",
"t  c #7B7C7D",
"y  c #7B7D7D",
"u  c #787C7E",
"i  c #797C7E",
"p  c #7C7C7C",
"a  c gray49",
"s  c #7E7D7D",
"d  c #7C7E7E",
"f  c #7D7E7E",
"g  c #7C7E7F",
"h  c #7E7E7E",
"j  c #7F7E7E",
"k  c gray50",
"l  c #807F7E",
"z  c #807F7F",
"x  c #81807F",
"c  c #6D7F80",
"v  c #777F83",
"b  c #738182",
"n  c #748182",
"m  c #738385",
"M  c #778085",
"N  c #748187",
"B  c #758187",
"V  c #768287",
"C  c #748586",
"Z  c #758587",
"A  c #7E8081",
"S  c #7D8082",
"D  c #788084",
"F  c #788287",
"G  c #7A8286",
"H  c #7D8284",
"J  c #7C8286",
"K  c #7C8387",
"L  c #798585",
"P  c #798586",
"I  c #788686",
"U  c #788687",
"Y  c #7E8487",
"T  c #7F8487",
"R  c #738788",
"E  c #798388",
"W  c #7A8489",
"Q  c #7D8488",
"!  c #7A8A8E",
"~  c #7D888D",
"^  c #7C8B8D",
"/  c #7C8C8D",
"(  c #778E94",
")  c #7D8D90",
"_  c #78AAC4",
"`  c #7BACC6",
"'  c #7EB3CF",
"]  c #7FB4D0",
"[  c #69C4CE",
"{  c #70C5CD",
"}  c #72C8CF",
"|  c #6BC7D0",
" . c #6CCBD2",
".. c #75D2DE",
"X. c #72D6DF",
"o. c #76D8DE",
"O. c #74CBEB",
"+. c #7FCAEC",
"@. c #6EDFE8",
"#. c #74D5E1",
"$. c #7BDFE7",
"%. c #808080",
"&. c #818181",
"*. c #828181",
"=. c #818282",
"-. c gray51",
";. c #838383",
":. c #848383",
">. c #808284",
",. c #818384",
"<. c #818687",
"1. c #848484",
"2. c #868584",
"3. c #868585",
"4. c #868686",
"5. c #868787",
"6. c gray53",
"7. c #888787",
"8. c #888887",
"9. c #818688",
"0. c #808689",
"q. c #818689",
"w. c #858688",
"e. c #878788",
"r. c #878888",
"t. c #878989",
"y. c #86898B",
"u. c #87898B",
"i. c #81898D",
"p. c #878B8E",
"a. c #888888",
"s. c #888988",
"d. c #898988",
"f. c #898989",
"g. c #88898A",
"h. c #898A8A",
"j. c gray54",
"k. c #8B8B8A",
"l. c #8B8B8B",
"z. c #8A8B8C",
"x. c gray55",
"c. c #8E8E8E",
"v. c #849091",
"b. c #859293",
"n. c #879095",
"m. c #869394",
"M. c #859596",
"N. c #899094",
"B. c #8F9395",
"V. c #859698",
"C. c #8F9698",
"Z. c #8A9B9E",
"A. c #909193",
"S. c #939393",
"D. c #929495",
"F. c #919597",
"G. c #979596",
"H. c #93979C",
"J. c #839FA1",
"K. c #A4BFD1",
"L. c #A1C1CE",
"P. c #A2C3D0",
"I. c #A6C0D1",
"U. c #A5C4D2",
"Y. c #B3C8D4",
"T. c #84C5E0",
"R. c #85C9EC",
"E. c #8ECBEC",
"W. c #B1CEE0",
"Q. c #B5CFE1",
"!. c #A7D2E5",
"~. c #AFD3E1",
"^. c #B3D3E1",
"/. c #B1DBEE",
"(. c #CED0D2",
"). c #CEDAE1",
"_. c #CEDBE1",
"`. c #CBDDE1",
"'. c #D4EAEF",
/* pixels */
"h ; ; ; 2 &.c.j.+ f.-.: @ % * a ",
"h a 4.g.N.z.x.d.q f.l.e.u K d 2 ",
"a # : G ` M 5 <.v.y j u.K.] Q s ",
"&.6.%.g W . >.P.} I : 8 0.E 9 p ",
"%.j.f.3 - %.>.Y m 0 S.D.f.7.:.O ",
"4 w -.h.F.).W.! 4 f _.^.9.4 $ 2 ",
"j.6.k.(.Q.E.+.[ P J T...b.8.1.O ",
";.p.i.w.q.B N C ,.i V Z r p -.h ",
"y.I.' X x - e B.`.~.Z.s.a.f.x.x.",
"%.T F > v 1 >.U.$.@. .L 6 p f.;.",
"p h 2.D _ n.f.T c R V.C.m.=.*.a ",
"o p k t v A k k A.G.H.!.#.J.5.O ",
"p 4 , H n < * S Y.'./.R.O.| P s ",
"&.3.>.L.{ U q * ) o.X.( ~ ^ t.l.",
"h k f H b 7 2 ; d / M.r.s = 5 %.",
"* & & +   6.j.k k l z 4 & & p k "
};
