/* XPM */
static char *_1118_c7dda4408231bf25084641966fcfc50c1eb0d84c5f2ac30a30dea0d226123a80[] = {
/* columns rows colors chars-per-pixel */
"16 16 194 2 ",
"   c #3E301B",
".  c #3F311D",
"X  c #40321D",
"o  c #40321E",
"O  c #41331F",
"+  c #43351F",
"@  c #43361F",
"#  c #44341E",
"$  c #44361F",
"%  c #413420",
"&  c #423520",
"*  c #433520",
"=  c #423521",
"-  c #423620",
";  c #453620",
":  c #453720",
">  c #443621",
",  c #453621",
"<  c #453721",
"1  c #463720",
"2  c #473721",
"3  c #453722",
"4  c #463722",
"5  c #473821",
"6  c #453923",
"7  c #463822",
"8  c #473822",
"9  c #473823",
"0  c #473923",
"q  c #483821",
"w  c #483921",
"e  c #483923",
"r  c #4A3A23",
"t  c #4B3B23",
"y  c #4C3C23",
"u  c #483924",
"i  c #483A24",
"p  c #493A24",
"a  c #493B25",
"s  c #4A3B24",
"d  c #4A3B25",
"f  c #4B3B25",
"g  c #493B26",
"h  c #493B27",
"j  c #4B3C25",
"k  c #4B3C26",
"l  c #4B3E27",
"z  c #4D3C25",
"x  c #4C3D25",
"c  c #4D3D25",
"v  c #4D3E25",
"b  c #4F3F25",
"n  c #4C3D26",
"m  c #4E3F26",
"M  c #4E3E27",
"N  c #4F3F27",
"B  c #4E3F28",
"V  c #4E3F29",
"C  c #503F27",
"Z  c #4F4027",
"A  c #504027",
"S  c #514027",
"D  c #504028",
"F  c #514128",
"G  c #53422A",
"H  c #56452B",
"J  c #57472C",
"K  c #59472C",
"L  c #5A472C",
"P  c #5B482E",
"I  c #5D4A2C",
"U  c #5D4A2E",
"Y  c #604D2E",
"T  c #604D2F",
"R  c #624E2E",
"E  c #624F2F",
"W  c #65502E",
"Q  c #65512F",
"!  c #66512F",
"~  c #604D30",
"^  c #624D31",
"/  c #614E30",
"(  c #634E30",
")  c #654F32",
"_  c #635031",
"`  c #645030",
"'  c #645031",
"]  c #645131",
"[  c #655131",
"{  c #645132",
"}  c #655132",
"|  c #665232",
" . c #675232",
".. c #675333",
"X. c #655235",
"o. c #665334",
"O. c #685232",
"+. c #685332",
"@. c #685333",
"#. c #6A5433",
"$. c #685434",
"%. c #695534",
"&. c #685535",
"*. c #695535",
"=. c #6A5434",
"-. c #6A5534",
";. c #6B5534",
":. c #6A5634",
">. c #6B5634",
",. c #6A5635",
"<. c #6B5635",
"1. c #6A5636",
"2. c #6B5637",
"3. c #6A5737",
"4. c #6B5737",
"5. c #6C5735",
"6. c #6D5735",
"7. c #6C5636",
"8. c #6D5736",
"9. c #6D5836",
"0. c #6D5837",
"q. c #6E5836",
"w. c #6F5936",
"e. c #6E5937",
"r. c #6E5938",
"t. c #6F5938",
"y. c #705A36",
"u. c #715B38",
"i. c #725B39",
"p. c #715A3A",
"a. c #705B3A",
"s. c #725B3A",
"d. c #735B3A",
"f. c #725C39",
"g. c #735C3A",
"h. c #725D3A",
"j. c #745C3A",
"k. c #745C3B",
"l. c #745E3A",
"z. c #755F3C",
"x. c #765E3C",
"c. c #775E3C",
"v. c #785F3C",
"b. c #795F3C",
"n. c #795F3D",
"m. c #78603D",
"M. c #7A603D",
"N. c #79603E",
"B. c #7A603E",
"V. c #7C623E",
"C. c #7D633F",
"Z. c #82653C",
"A. c #83663C",
"S. c #84683D",
"D. c #85693E",
"F. c #85683F",
"G. c #866A3F",
"H. c #856940",
"J. c #846941",
"K. c #856941",
"L. c #866A40",
"P. c #876B41",
"I. c #876B42",
"U. c #896B40",
"Y. c #886C40",
"T. c #896C41",
"R. c #896D41",
"E. c #8B6E41",
"W. c #886C42",
"Q. c #896C42",
"!. c #8A6D43",
"~. c #8B6D43",
"^. c #8B6E43",
"/. c #8D6E43",
"(. c #8C6E44",
"). c #8C6F44",
"_. c #8D6F44",
"`. c #8C6F45",
"'. c #8D7044",
"]. c #8F7044",
"[. c #8E7144",
"{. c #8E7045",
"}. c #8F7145",
"|. c #8E7246",
" X c #8F7246",
".X c #917244",
"XX c #907345",
"oX c #907246",
"OX c #907346",
"+X c #917347",
"@X c #937548",
"#X c #937549",
"$X c #947548",
"%X c #97784A",
/* pixels */
"h | h.I., i.G.x  .[ =.V.r.v.9.%X",
"% ` 3.X s ~.v  .^.5 ;.`.J s.K .X",
"O U Y = 7._.* >.}.@  .M.G k.H oX",
"X.l I f B.m.9 <.^.$ >.!.c ).N N.",
"o.g $.@.C.N.*.%.4.6 q.{.z Q.r k.",
",.~ $.5.+X5.[ $.$.- 6.Z.e d.p [ ",
"5.c.F r.XXQ ' y A.5 k.L # p.0 &.",
"u.).7 t. Xc J.C L.w j.A [ g.0 2.",
"u.[.u a.R.m _ k { n S.8 1.:.e x.",
"q.|.B { l.D.d } / q U.a 0.U.n n.",
"V g.p } w.E.: R , ^ #Xi 0.OXD /.",
"3 g.7 _ z.'.N K.. ) @X3 e.Y.t $X",
"2 P.; E f.).1 ..4 O.T.< $.W S (.",
"3 8.^ $.5.v.Z &.7.! +.& -.].W.q ",
"o #.W.j *.c.M s F.y.H.+ [ b.b T ",
"P ;.v.> E 5./ 3 -.r. .  ] %.( B."
};
